<svg width="512" height="512" viewBox="0 0 512 512" fill="none" xmlns="http://www.w3.org/2000/svg">
<path d="M220.169 235.163C226.355 237.752 232.772 239.752 239.333 241.137V478.079C235.309 477.042 231.392 475.625 227.636 473.848L78.3022 407.394C65.1168 401.525 53.915 391.96 46.0524 379.857C38.1899 367.754 34.0035 353.632 34 339.199V173.439C34.0198 166.791 34.9408 160.177 36.7378 153.777L220.169 235.163ZM328.187 179.661L125.342 84.3366L78.3022 105.243C69.8187 108.972 62.1299 114.295 55.6533 120.923L235.102 200.817C242.312 204.016 250.112 205.669 258 205.669C265.888 205.669 273.688 204.016 280.898 200.817L328.187 179.661ZM460.347 120.923C453.87 114.295 446.181 108.972 437.698 105.243L288.364 38.7899C278.821 34.4832 268.47 32.2559 258 32.2559C247.53 32.2559 237.179 34.4832 227.636 38.7899L170.64 64.1766L373.484 159.501L460.347 120.923ZM479.262 153.777L391.902 192.603V253.581C391.902 258.532 389.936 263.28 386.435 266.78C382.934 270.281 378.186 272.248 373.236 272.248C368.285 272.248 363.537 270.281 360.036 266.78C356.536 263.28 354.569 258.532 354.569 253.581V209.03L295.831 235.163C289.605 237.641 283.198 239.637 276.667 241.137V478.079C280.691 477.042 284.608 475.625 288.364 473.848L437.698 407.394C450.883 401.525 462.085 391.96 469.948 379.857C477.81 367.754 481.996 353.632 482 339.199V173.439C481.98 166.791 481.059 160.177 479.262 153.777Z" fill="black"/>
</svg>
