<svg width="512" height="512" viewBox="0 0 512 512" fill="none" xmlns="http://www.w3.org/2000/svg">
<path d="M436.787 430.709L416.852 179.488C415.615 163.301 401.921 150.627 385.691 150.627H346.309V208.977C346.309 216.203 340.46 222.052 333.234 222.052C326.017 222.052 320.159 216.203 320.159 208.977V150.627H199.871V208.977C199.871 216.203 194.013 222.052 186.796 222.052C179.57 222.052 173.72 216.203 173.72 208.977V150.627H134.339C118.109 150.627 104.415 163.301 103.178 179.453L83.2341 430.743C81.6916 450.87 88.6734 470.901 102.384 485.702C116.096 500.501 135.534 509 155.713 509H364.318C384.497 509 403.935 500.501 417.646 485.701C431.357 470.9 438.339 450.869 436.787 430.709ZM318.922 302.775L251.298 370.398C250.085 371.615 248.644 372.58 247.057 373.238C245.47 373.896 243.768 374.235 242.05 374.233C240.332 374.235 238.631 373.897 237.044 373.238C235.456 372.58 234.015 371.615 232.802 370.398L201.109 338.705C196.001 333.597 196.001 325.325 201.109 320.217C206.217 315.109 214.498 315.109 219.597 320.217L242.051 342.662L300.434 284.279C305.534 279.179 313.815 279.179 318.923 284.279C324.03 289.387 324.03 297.667 318.922 302.775ZM260.015 62.5547C212.431 62.5547 173.721 101.273 173.721 148.857V150.627H199.872V148.857C199.872 115.69 226.849 88.704 260.016 88.704C293.183 88.704 320.161 115.69 320.161 148.857V150.627H346.31V148.857C346.309 101.273 307.599 62.5547 260.015 62.5547Z" fill="black"/>
</svg>
