<svg width="512" height="512" viewBox="0 0 512 512" fill="none" xmlns="http://www.w3.org/2000/svg">
<path d="M256 286.293C217.814 286.293 186.667 317.44 186.667 355.626V478.293H325.334V355.626C325.334 317.44 294.187 286.293 256 286.293Z" fill="black"/>
<path d="M451.2 152.746L301.867 48.2125C274.347 29.0125 237.44 29.0125 210.134 48.2125L60.8003 152.746C39.467 167.679 26.667 192.212 26.667 218.239V398.293C26.667 442.453 62.507 478.293 106.667 478.293H154.667V355.626C154.667 299.733 200.107 254.293 256 254.293C311.894 254.293 357.334 299.733 357.334 355.626V478.293H405.334C449.494 478.293 485.334 442.453 485.334 398.293V218.239C485.334 192.212 472.534 167.679 451.2 152.746Z" fill="black"/>
</svg>
