<svg width="512" height="512" viewBox="0 0 512 512" fill="none" xmlns="http://www.w3.org/2000/svg">
<path d="M483.799 181.941C482.525 180.443 480.941 179.239 479.157 178.413C477.372 177.587 475.429 177.158 473.463 177.156H134.322L107.54 78.8549C106.759 75.9891 105.058 73.4597 102.698 71.6562C100.338 69.8528 97.4503 68.8755 94.4802 68.875H38.5351C31.0538 68.875 25 74.9288 25 82.4101C25 89.8914 31.0538 95.9452 38.5351 95.9452H84.1439L159.086 370.512C144.881 376.892 135.085 390.819 135.085 407.252C135.085 425.971 147.879 441.611 165.136 446.291C163.251 450.969 162.156 456.047 162.156 461.393C162.156 483.784 180.37 501.998 202.761 501.998C225.152 501.998 243.366 483.784 243.366 461.393C243.366 456.625 242.39 452.112 240.873 447.858H354.14C352.623 452.112 351.647 456.625 351.647 461.393C351.647 483.784 369.862 501.998 392.252 501.998C414.643 501.998 432.858 483.784 432.858 461.393C432.858 439.002 414.643 420.788 392.252 420.788H175.691C168.236 420.788 162.156 414.72 162.156 407.252C162.156 394.644 178.404 391.987 175.691 393.453C178.398 393.453 187.549 392.321 447.715 366.581C450.678 366.292 453.463 365.032 455.638 362.999C457.813 360.965 459.256 358.27 459.743 355.333L486.813 192.912C487.138 190.974 487.036 188.989 486.516 187.094C485.995 185.199 485.068 183.441 483.799 181.941ZM216.296 461.393C216.296 468.861 210.216 474.928 202.761 474.928C195.306 474.928 189.226 468.861 189.226 461.393C189.226 453.925 195.306 447.858 202.761 447.858C210.216 447.858 216.296 453.925 216.296 461.393ZM392.252 474.928C384.797 474.928 378.717 468.861 378.717 461.393C378.717 453.925 384.797 447.858 392.252 447.858C399.708 447.858 405.787 453.925 405.787 461.393C405.787 468.861 399.708 474.928 392.252 474.928ZM243.366 298.972C243.366 306.453 237.312 312.507 229.831 312.507C222.35 312.507 216.296 306.453 216.296 298.972V244.831C216.296 237.35 222.35 231.296 229.831 231.296C237.312 231.296 243.366 237.35 243.366 244.831V298.972ZM324.577 298.972C324.577 306.453 318.523 312.507 311.042 312.507C303.56 312.507 297.507 306.453 297.507 298.972V244.831C297.507 237.35 303.56 231.296 311.042 231.296C318.523 231.296 324.577 237.35 324.577 244.831V298.972ZM405.787 298.972C405.787 306.453 399.734 312.507 392.252 312.507C384.771 312.507 378.717 306.453 378.717 298.972V244.831C378.717 237.35 384.771 231.296 392.252 231.296C399.734 231.296 405.787 237.35 405.787 244.831V298.972Z" fill="black"/>
<path d="M432.857 109.481C432.857 101.999 426.803 95.9454 419.322 95.9454H397.856L401.822 91.9796C407.109 86.6928 407.109 78.1269 401.822 72.8401C396.535 67.5533 387.969 67.5533 382.683 72.8401L365.182 90.341L347.681 72.8401C342.394 67.5533 333.828 67.5533 328.541 72.8401C323.255 78.1269 323.255 86.6928 328.541 91.9796L332.507 95.9454H311.041C303.56 95.9454 297.506 101.999 297.506 109.481V150.086H432.857V109.481ZM270.436 123.016H175.69C168.209 123.016 162.155 129.069 162.155 136.551V150.086H270.436V123.016Z" fill="black"/>
</svg>
