<svg width="512" height="512" viewBox="0 0 512 512" fill="none" xmlns="http://www.w3.org/2000/svg">
<path fill-rule="evenodd" clip-rule="evenodd" d="M147.085 141.162C147.085 112.337 158.536 84.6921 178.918 64.3097C199.301 43.9273 226.945 32.4766 255.77 32.4766C284.595 32.4766 312.24 43.9273 332.622 64.3097C353.005 84.6921 364.455 112.337 364.455 141.162C364.455 169.987 353.005 197.631 332.622 218.014C312.24 238.396 284.595 249.847 255.77 249.847C226.945 249.847 199.301 238.396 178.918 218.014C158.536 197.631 147.085 169.987 147.085 141.162Z" fill="black"/>
<path d="M77.1109 349.439C97.7437 321.465 124.663 298.732 155.697 283.074C186.73 267.416 221.01 259.271 255.77 259.297C329.034 259.297 393.999 294.776 434.43 349.439C442.595 360.459 442.595 375.505 434.43 386.525C413.797 414.499 386.878 437.232 355.844 452.89C324.81 468.548 290.531 476.693 255.77 476.667C221.01 476.693 186.73 468.548 155.697 452.89C124.663 437.232 97.7437 414.499 77.1109 386.525C73.142 381.157 71 374.658 71 367.982C71 361.306 73.142 354.807 77.1109 349.439Z" fill="black"/>
</svg>
