<svg width="512" height="512" viewBox="0 0 512 512" fill="none" xmlns="http://www.w3.org/2000/svg">
<path d="M182.864 255.999C200.95 255.999 218.629 250.636 233.667 240.588C248.705 230.539 260.425 216.257 267.345 199.548C274.265 182.839 276.075 164.452 272.546 146.714C269.016 128.976 260.306 112.683 247.516 99.8957C234.726 87.1082 218.432 78.4007 200.693 74.8742C182.955 71.3478 164.569 73.1609 147.86 80.0842C131.152 87.0076 116.872 98.7301 106.827 113.769C96.781 128.809 91.4208 146.489 91.424 164.575C91.4494 188.817 101.092 212.059 118.235 229.199C135.378 246.34 158.622 255.978 182.864 255.999ZM302.48 331.535C279.309 307.769 249.58 291.449 217.089 284.66C184.598 277.871 150.821 280.922 120.072 293.422C89.3237 305.922 62.9993 327.305 44.4617 354.839C25.9242 382.372 16.015 414.807 16 447.999C16 452.243 17.6857 456.312 20.6863 459.313C23.6869 462.313 27.7565 463.999 32 463.999H333.76C338.003 463.999 342.073 462.313 345.074 459.313C348.074 456.312 349.76 452.243 349.76 447.999C349.822 431.033 347.203 414.164 342 398.015C334.253 373.049 320.711 350.269 302.48 331.535Z" fill="black"/>
<path d="M376 264C413.555 264 444 233.555 444 196C444 158.445 413.555 128 376 128C338.445 128 308 158.445 308 196C308 233.555 338.445 264 376 264Z" fill="black"/>
<path d="M376 282.719C354.552 282.799 333.521 288.64 315.104 299.631C318.576 302.735 322.079 305.791 325.359 309.151C347.146 331.544 363.33 358.769 372.592 388.607C375.764 398.43 378.103 408.503 379.584 418.719H480C484.243 418.719 488.313 417.033 491.313 414.032C494.314 411.032 496 406.962 496 402.719C495.966 370.903 483.312 340.4 460.815 317.903C438.318 295.406 407.815 282.753 376 282.719Z" fill="black"/>
</svg>
