<svg width="512" height="512" viewBox="0 0 512 512" fill="none" xmlns="http://www.w3.org/2000/svg">
<path d="M68.5581 239.529C67.275 238.25 66.257 236.731 65.5624 235.059C64.8678 233.387 64.5103 231.594 64.5103 229.783C64.5103 227.973 64.8678 226.18 65.5624 224.508C66.257 222.835 67.275 221.316 68.5581 220.037L173.06 115.663C185.378 103.359 204.341 100.041 220.12 107.507L302.614 146.215C307.735 148.703 314.102 147.597 318.255 143.45L421.787 40.0436C427.185 34.6521 436.044 34.6521 441.442 40.0436C446.84 45.4351 446.84 54.1445 441.442 59.536L337.771 163.081C325.452 175.384 306.49 178.702 290.71 171.237L208.355 132.529C203.095 130.04 196.728 131.146 192.576 135.155L88.2127 239.529C85.4444 242.294 81.9841 243.538 78.3854 243.538C74.7867 243.538 71.3264 242.294 68.5581 239.529ZM237.698 278.929V450.351C237.698 457.684 234.782 464.717 229.59 469.902C224.399 475.087 217.358 478 210.016 478H182.333C174.991 478 167.95 475.087 162.759 469.902C157.567 464.717 154.651 457.684 154.651 450.351V278.929C154.651 263.722 167.108 251.28 182.333 251.28H210.016C225.241 251.28 237.698 263.722 237.698 278.929ZM473 181.882V450.351C473 457.684 470.083 464.717 464.892 469.902C459.7 475.087 452.659 478 445.317 478H417.635C410.293 478 403.252 475.087 398.06 469.902C392.869 464.717 389.952 457.684 389.952 450.351V181.882C389.952 166.675 402.41 154.233 417.635 154.233H445.317C460.543 154.233 473 166.675 473 181.882ZM120.048 402.519V450.351C120.048 453.982 119.332 457.577 117.94 460.932C116.549 464.286 114.51 467.334 111.94 469.902C109.369 472.469 106.317 474.506 102.959 475.895C99.6001 477.285 96.0004 478 92.3651 478H64.6825C57.3407 478 50.2995 475.087 45.108 469.902C39.9165 464.717 37 457.684 37 450.351V402.519C37 387.312 49.4571 374.87 64.6825 374.87H92.3651C107.59 374.87 120.048 387.312 120.048 402.519ZM355.349 327.038V450.351C355.349 457.684 352.433 464.717 347.241 469.902C342.05 475.087 335.009 478 327.667 478H299.984C292.642 478 285.601 475.087 280.41 469.902C275.218 464.717 272.302 457.684 272.302 450.351V327.038C272.302 311.831 284.759 299.389 299.984 299.389H327.667C342.892 299.389 355.349 311.831 355.349 327.038Z" fill="black"/>
</svg>
